<?xml version="1.0" encoding="UTF-8"?>
<svg id="Calque_3" data-name="Calque 3" xmlns="http://www.w3.org/2000/svg" viewBox="0 0 511.12 498.14">
  <path d="M329.58,246.55c1.62-20.49,17.89-34.12,38.61-29.4,7.96,1.82,15.55,8.26,18.62,15.81,1.44,3.54,4.68,13.6-1.59,13.6h-55.65Z"/>
  <path d="M418.85,7.96l-326.43.23C47.5,10.95,12.68,46.79,10.08,91.58v313.93c2.43,43.89,37.38,79.66,81.27,82.87h329.94c41.66-3.35,76.22-36.26,80.46-78.07V86.79c-4.15-43.05-39.77-76.53-82.91-78.83ZM272.73,346.63h-47.24l-18.78-51.3-74.93.42c-2.06,1.38-12.49,40.75-15.36,47.1-.4.88-1.83,3.78-2.63,3.78h-41.63c-.41,0-1.31-1.33-1.23-2l66.72-191.93c2.49-3.32,2.27-19.18,3.32-20.7.57-.82,1.56-.68,2.41-.79,10.75-1.31,39.53-1.1,50.53,0,3.55.35,3.56.71,4.98,3.83,21.49,67.3,50.2,133.57,71.45,200.77,1.12,3.55,2.84,6.99,2.39,10.82ZM432.06,263.76c-.12,1.99-.92,10.13-1.65,11.16-.35.49-.64.97-1.27,1.13-33.07,2.03-66.4.41-99.56.93,4.88,38.88,45.87,38.43,76.07,31.63,2.27-.51,10.66-3.7,11.51-3.62.45.04,1.29,1.89,1.29,2.01,0,8.41,1.3,23.8,0,31.23-.82,4.66-7.63,6.41-11.6,7.62-23.39,7.15-60.13,7.51-82.34-3.36-66.63-32.62-49.73-155.9,27.09-161.58,55.15-4.08,83.76,28.98,80.45,82.85Z"/>
  <polygon points="143.83 254.56 169.05 171.28 195.07 254.56 143.83 254.56"/>
</svg>