<svg width="512" height="499" viewBox="0 0 512 499" fill="none" xmlns="http://www.w3.org/2000/svg">
<path d="M329.58 247.05C331.2 226.56 347.47 212.93 368.19 217.65C376.15 219.47 383.74 225.91 386.81 233.46C388.25 237 391.49 247.06 385.22 247.06H329.57L329.58 247.05Z" fill="#E2E2E2"/>
<path d="M418.85 8.45996L92.4201 8.68996C47.5001 11.45 12.6801 47.29 10.0801 92.08V406.01C12.5101 449.9 47.4601 485.67 91.3501 488.88H421.29C462.95 485.53 497.51 452.62 501.75 410.81V87.29C497.6 44.24 461.98 10.76 418.84 8.45996H418.85ZM272.73 347.13H225.49L206.71 295.83L131.78 296.25C129.72 297.63 119.29 337 116.42 343.35C116.02 344.23 114.59 347.13 113.79 347.13H72.1601C71.7501 347.13 70.8501 345.8 70.9301 345.13L137.65 153.2C140.14 149.88 139.92 134.02 140.97 132.5C141.54 131.68 142.53 131.82 143.38 131.71C154.13 130.4 182.91 130.61 193.91 131.71C197.46 132.06 197.47 132.42 198.89 135.54C220.38 202.84 249.09 269.11 270.34 336.31C271.46 339.86 273.18 343.3 272.73 347.13ZM432.06 264.26C431.94 266.25 431.14 274.39 430.41 275.42C430.06 275.91 429.77 276.39 429.14 276.55C396.07 278.58 362.74 276.96 329.58 277.48C334.46 316.36 375.45 315.91 405.65 309.11C407.92 308.6 416.31 305.41 417.16 305.49C417.61 305.53 418.45 307.38 418.45 307.5C418.45 315.91 419.75 331.3 418.45 338.73C417.63 343.39 410.82 345.14 406.85 346.35C383.46 353.5 346.72 353.86 324.51 342.99C257.88 310.37 274.78 187.09 351.6 181.41C406.75 177.33 435.36 210.39 432.05 264.26H432.06Z" fill="#E2E2E2"/>
<path d="M143.83 255.06L169.05 171.78L195.07 255.06H143.83Z" fill="#E2E2E2"/>
</svg>
