<svg width="512" height="499" viewBox="0 0 512 499" fill="none" xmlns="http://www.w3.org/2000/svg">
<path d="M426.26 4.30003L87.3801 4.28003C43.7201 7.69003 8.83008 43.34 5.35008 86.82L5.33008 410.44C8.53008 454.78 43.9901 490.34 88.3101 493.89H425.36C450.68 491.45 474.81 478.91 490.12 458.57C500.4 444.92 506.3 428.4 507.88 411.37V86.33C504.68 43.23 469.35 7.68003 426.26 4.30003ZM314.97 349.52C314.45 350.03 313.28 350.05 312.56 350.11C298.95 351.26 283.77 349.19 269.99 350.11L267.49 349.38L248.3 297.82L170.87 297.88L154.24 348.98L152.74 349.79C139.9 349.6 125.56 351.09 112.81 350.11C112.07 350.05 110.18 349.89 109.78 349.33C108.62 347.71 110.98 342.16 111.65 340.13C132.12 278.04 156.75 217 176.26 154.64C177.43 150.89 178.99 146.54 179.57 142.7C180.1 139.22 179.55 134.62 180.1 131.67C180.26 130.82 180.82 130.29 181.49 129.82H237.88L238.74 130.8L315.46 347.22C315.59 347.92 315.46 349.03 314.97 349.53V349.52ZM384.45 350.11H337.71V182.72H384.45V350.11ZM357.38 165.17C337.65 163.25 328.74 138.41 339.75 123.28C345.78 114.99 356.17 111.96 366.1 113C396.17 116.14 394.99 168.83 357.38 165.18V165.17Z" fill="#E2E2E2"/>
<path d="M235.67 255.6H184.73L209.98 171.58L235.67 255.6Z" fill="#E2E2E2"/>
</svg>
