<?xml version="1.0" encoding="UTF-8"?>
<svg id="Calque_2" data-name="Calque 2" xmlns="http://www.w3.org/2000/svg" viewBox="0 0 511.12 498.14">
  <path d="M426.26,3.8l-338.88-.02C43.72,7.19,8.83,42.84,5.35,86.32l-.02,323.62c3.2,44.34,38.66,79.9,82.98,83.45h337.05c25.32-2.44,49.45-14.98,64.76-35.32,10.28-13.65,16.18-30.17,17.76-47.2V85.83c-3.2-43.1-38.53-78.65-81.62-82.03ZM314.97,349.02c-.52.51-1.69.53-2.41.59-13.61,1.15-28.79-.92-42.57,0l-2.5-.73-19.19-51.56-77.43.06-16.63,51.1-1.5.81c-12.84-.19-27.18,1.3-39.93.32-.74-.06-2.63-.22-3.03-.78-1.16-1.62,1.2-7.17,1.87-9.2,20.47-62.09,45.1-123.13,64.61-185.49,1.17-3.75,2.73-8.1,3.31-11.94.53-3.48-.02-8.08.53-11.03.16-.85.72-1.38,1.39-1.85h56.39s.86.98.86.98l76.72,216.42c.13.7,0,1.81-.49,2.31ZM384.45,349.61h-46.74v-167.39h46.74v167.39ZM357.38,164.67c-19.73-1.92-28.64-26.76-17.63-41.89,6.03-8.29,16.42-11.32,26.35-10.28,30.07,3.14,28.89,55.83-8.72,52.18Z"/>
  <polygon points="235.67 255.1 184.73 255.1 209.98 171.08 235.67 255.1"/>
</svg>