<svg width="512" height="499" viewBox="0 0 512 499" fill="none" xmlns="http://www.w3.org/2000/svg">
<path d="M405.24 8.45996L424.87 12.24C464.92 23.29 494.21 59.21 497.19 100.73V401.18C493.36 442.48 463.36 478.64 422.92 488.62C417.67 489.92 412.2 490.3 407 491.7H104.76C98.8104 490.38 92.8004 489.54 86.8904 487.92C58.4904 480.09 34.2804 459.01 22.6904 431.95C18.6104 422.43 16.6904 412.58 14.6104 402.48V97.69C19.8104 56.6 49.2503 21.52 89.7403 11.55L106.53 8.45996H405.24ZM270.03 356.98C271.73 340.16 268.76 320.64 270.03 303.53C274.69 305.46 278.9 308.06 283.71 309.73C332.51 326.69 379.86 283.49 366.98 233.56C364.02 222.08 355.96 208.65 346.2 201.8C344.94 199.72 350.82 196.13 352.67 194C386.56 154.91 364.75 96.39 314.55 88.08C277.25 90.71 233.98 84.08 197.36 88.22C155.49 92.95 131.46 140.67 149.08 178.4C153.03 186.87 159.69 194.46 166.61 200.61C135.2 225.86 135.53 274.13 166.61 299.56C118.3 339.59 149.62 417.4 213.01 412.19C241.03 409.88 267.17 385.16 270.03 356.99V356.98Z" fill="#E2E2E2"/>
<path d="M241.74 214.3V284.98H199.76C194.35 284.98 183.47 277.17 179.9 273.03C160.88 250.95 176.49 214.31 205.94 214.31H241.73L241.74 214.3Z" fill="#E2E2E2"/>
<path d="M270.03 186.03V116.24H312.01C314.07 116.24 321.72 119.84 323.87 121.17C346.31 135.11 346.33 167.16 323.87 181.1C322.22 182.12 314.15 186.03 312.9 186.03H270.04H270.03Z" fill="#E2E2E2"/>
<path d="M241.74 116.24V186.03H199.76C185.24 186.03 170.97 164.85 170.97 151.13C170.97 137.46 185.22 116.23 199.76 116.23H241.74V116.24Z" fill="#E2E2E2"/>
<path d="M241.74 313.25V354.33C241.74 358.63 236.29 368.13 233.36 371.57C207.84 401.51 160.29 373.5 173.53 336.5C177.77 324.65 192.27 313.25 205.07 313.25H241.75H241.74Z" fill="#E2E2E2"/>
<path d="M305.45 285.22C324.902 285.22 340.67 269.456 340.67 250.01C340.67 230.564 324.902 214.8 305.45 214.8C285.999 214.8 270.23 230.564 270.23 250.01C270.23 269.456 285.999 285.22 305.45 285.22Z" fill="#E2E2E2"/>
</svg>
