<?xml version="1.0" encoding="UTF-8"?>
<svg id="Calque_4" data-name="Calque 4" xmlns="http://www.w3.org/2000/svg" viewBox="0 0 511.12 498.14">
  <path d="M405.24,7.96l19.63,3.78c40.05,11.05,69.34,46.97,72.32,88.49v300.45c-3.83,41.3-33.83,77.46-74.27,87.44-5.25,1.3-10.72,1.68-15.92,3.08H104.76c-5.95-1.32-11.96-2.16-17.87-3.78-28.4-7.83-52.61-28.91-64.2-55.97-4.08-9.52-6-19.37-8.08-29.47V97.19C19.81,56.1,49.25,21.02,89.74,11.05l16.79-3.09h298.71ZM270.03,356.48c1.7-16.82-1.27-36.34,0-53.45,4.66,1.93,8.87,4.53,13.68,6.2,48.8,16.96,96.15-26.24,83.27-76.17-2.96-11.48-11.02-24.91-20.78-31.76-1.26-2.08,4.62-5.67,6.47-7.8,33.89-39.09,12.08-97.61-38.12-105.92-37.3,2.63-80.57-4-117.19.14-41.87,4.73-65.9,52.45-48.28,90.18,3.95,8.47,10.61,16.06,17.53,22.21-31.41,25.25-31.08,73.52,0,98.95-48.31,40.03-16.99,117.84,46.4,112.63,28.02-2.31,54.16-27.03,57.02-55.2Z"/>
  <path d="M241.74,213.8v70.68h-41.98c-5.41,0-16.29-7.81-19.86-11.95-19.02-22.08-3.41-58.72,26.04-58.72h35.79Z"/>
  <path d="M270.03,185.53v-69.79h41.98c2.06,0,9.71,3.6,11.86,4.93,22.44,13.94,22.46,45.99,0,59.93-1.65,1.02-9.72,4.93-10.97,4.93h-42.86Z"/>
  <path d="M241.74,115.74v69.79h-41.98c-14.52,0-28.79-21.18-28.79-34.9,0-13.67,14.25-34.9,28.79-34.9h41.98Z"/>
  <path d="M241.74,312.75v41.08c0,4.3-5.45,13.8-8.38,17.24-25.52,29.94-73.07,1.93-59.83-35.07,4.24-11.85,18.74-23.25,31.54-23.25h36.68Z"/>
  <ellipse cx="305.45" cy="249.51" rx="35.22" ry="35.21"/>
</svg>