<?xml version="1.0" encoding="UTF-8"?>
<svg id="Calque_1" data-name="Calque 1" xmlns="http://www.w3.org/2000/svg" viewBox="0 0 348 512">
  <defs>
    <style>
      .cls-1 {
        fill: #010101;
      }
    </style>
  </defs>
  <path class="cls-1" d="M165.85,4.24C261.16-.08,340.33,73.31,342.49,168.67c1.83,80.69-45.43,171.84-88.14,238.22-18.17,28.24-38.25,56.4-59.34,82.52-2.89,3.59-11.57,15.14-14.76,16.98-9.84,5.68-16.5-5.55-21.92-12.02-22.55-26.92-44.05-56.82-63.18-86.29C51.08,340.17,3.39,246.65,6.84,163.68,10.38,78.82,81.07,8.08,165.85,4.24ZM237.71,182.52c0-34.78-28.2-62.98-62.98-62.98s-62.98,28.2-62.98,62.98,28.2,62.98,62.98,62.98,62.98-28.2,62.98-62.98Z"/>
</svg>