<svg width="526" height="513" viewBox="0 0 526 513" fill="none" xmlns="http://www.w3.org/2000/svg">
<path d="M431.59 7.42993L93.4104 7.56993C45.0804 10.2699 8.09035 49.0599 7.11035 97.3799V416.55C9.22035 464.29 43.4804 501.47 91.3304 505.57H434.49C479.16 502.42 515.5 465.52 518.23 420.87V92.1099C515.3 46.2999 477.4 9.38993 431.59 7.42993ZM266.74 260.55C242.46 288.88 203.07 290.1 168.38 288.16V357.98C168.38 359.38 166.32 359.59 165.28 359.68C154.73 360.58 136.56 360.41 125.89 359.68C124.4 359.58 122.65 359.78 122.43 357.89L122.29 138.17C122 134.07 129.12 135.73 132.18 135.58C145.8 134.9 159.78 134.29 173.41 134.1C204.22 133.66 235.96 134.35 260.28 155.73C288.53 180.57 291 232.27 266.76 260.56L266.74 260.55ZM429.38 317.13C422.84 366.46 359.71 369.79 321.84 359.52C318.78 358.69 307.23 355.26 306.32 352.49L306.09 313.33C306.57 308.83 311.72 313.58 313.95 314.64C330.13 322.37 349.77 326.57 367.78 325.1C376.61 324.38 388.66 318.53 381.86 308.15C376.87 300.53 352.16 293.41 343.05 288.9C318.4 276.69 301.09 258.21 307.7 228.55C313.92 200.65 340.63 188.55 366.96 187.04C379.93 186.3 397.33 187.52 409.87 190.87C412.5 191.57 419.82 193.45 420.59 195.99L420.83 233.23C420.77 235.71 418.26 235.66 416.36 235.26C413.66 234.7 407.79 231.21 404.27 230.08C392.81 226.4 366.93 222.36 356.19 227.6C351.04 230.12 349.16 236.75 352.47 241.57C358.42 250.25 383.15 257.23 393.31 262.15C416.8 273.52 433.19 288.55 429.4 317.12L429.38 317.13Z" fill="#E2E2E2"/>
<path d="M168.86 176.35C186.22 177.08 205.34 173.49 221.18 182.34C234.34 189.7 238.45 204.4 236.4 218.69C234.15 234.34 222.24 242.69 207.74 246.18C198.08 248.51 180.34 249.51 170.52 248.36C170.04 248.3 168.86 248.14 168.86 247.62V176.36V176.35Z" fill="#E2E2E2"/>
</svg>
