<?xml version="1.0" encoding="UTF-8"?>
<svg id="Calque_1" data-name="Calque 1" xmlns="http://www.w3.org/2000/svg" viewBox="0 0 525.35 512">
  <path d="M431.59,6.93l-338.18.14C45.08,9.77,8.09,48.56,7.11,96.88v319.17c2.11,47.74,36.37,84.92,84.22,89.02h343.16c44.67-3.15,81.01-40.05,83.74-84.7V91.61c-2.93-45.81-40.83-82.72-86.64-84.68ZM266.74,260.05c-24.28,28.33-63.67,29.55-98.36,27.61v69.82c0,1.4-2.06,1.61-3.1,1.7-10.55.9-28.72.73-39.39,0-1.49-.1-3.24.1-3.46-1.79l-.14-219.72c-.29-4.1,6.83-2.44,9.89-2.59,13.62-.68,27.6-1.29,41.23-1.48,30.81-.44,62.55.25,86.87,21.63,28.25,24.84,30.72,76.54,6.48,104.83ZM429.38,316.63c-6.54,49.33-69.67,52.66-107.54,42.39-3.06-.83-14.61-4.26-15.52-7.03l-.23-39.16c.48-4.5,5.63.25,7.86,1.31,16.18,7.73,35.82,11.93,53.83,10.46,8.83-.72,20.88-6.57,14.08-16.95-4.99-7.62-29.7-14.74-38.81-19.25-24.65-12.21-41.96-30.69-35.35-60.35,6.22-27.9,32.93-40,59.26-41.51,12.97-.74,30.37.48,42.91,3.83,2.63.7,9.95,2.58,10.72,5.12l.24,37.24c-.06,2.48-2.57,2.43-4.47,2.03-2.7-.56-8.57-4.05-12.09-5.18-11.46-3.68-37.34-7.72-48.08-2.48-5.15,2.52-7.03,9.15-3.72,13.97,5.95,8.68,30.68,15.66,40.84,20.58,23.49,11.37,39.88,26.4,36.09,54.97Z"/>
  <path d="M168.86,175.85c17.36.73,36.48-2.86,52.32,5.99,13.16,7.36,17.27,22.06,15.22,36.35-2.25,15.65-14.16,24-28.66,27.49-9.66,2.33-27.4,3.33-37.22,2.18-.48-.06-1.66-.22-1.66-.74v-71.26Z"/>
</svg>