<svg width="512" height="330" viewBox="0 0 512 330" fill="none" xmlns="http://www.w3.org/2000/svg">
<path d="M223.41 27.56C223.33 28.73 223.29 28.37 224.12 28.49C232.46 29.71 242.89 27.13 251.4 26.6C252.26 26.55 253.15 26.65 254.01 26.62L251.66 27.09C251.43 29.22 254.91 27.2 255.9 27.56L254.49 26.16L259.66 25.69C260.12 27.69 257.05 25.79 256.84 27.09L273.31 25.68L268.14 24.75L277.08 24.28C276.87 25.59 273.8 23.68 274.26 25.68C278.45 25.48 283.06 24.39 287.19 24.24C288.98 24.18 290.32 25.1 290.51 25.1C290.82 25.1 291.32 24.18 291.98 23.94C293.85 23.29 298.64 24 300.98 23.02C301.53 22.79 304.49 20.59 305.46 20.19C306.03 19.96 309.1 18.69 309.33 18.64C311.4 18.18 311.86 18.69 312.85 20.28L311.91 21.21L312.97 21.83L361.07 16.27L361.57 15.34L360.39 14.41L371.21 13.47C369.72 15.02 366.15 14.47 363.95 14.91C363.62 14.98 362.35 15.31 362.98 15.82C366.65 15.13 370.62 15.51 374.25 14.85C374.81 14.75 375.36 14.59 375.45 13.94L372.63 13.47C380.74 11.8 389.07 11.89 397.36 11.6C403.46 11.39 409.54 10.98 415.72 11.09C417.39 11.12 419.08 12.23 420.64 10.88L418.5 10.11L418.29 8.74997C416.64 8.45997 418.12 9.52997 417.12 10.15L413.58 9.68997C413.36 8.34997 413.86 8.90997 414.67 8.68997C417.59 7.88997 423.23 8.22997 426.4 8.40997C431.22 8.67997 436.11 9.52997 440.89 10.17L440.41 12.52L441.82 12.99C441.23 12.83 437.43 12.91 438.28 13.94L439.93 14.87C438.16 14.92 436.35 14.37 435.23 16.05L437.1 18.16C436.14 18.13 435.19 18.11 434.25 18.37C433.43 18.6 429.13 20.11 430.97 21.24L432.87 21.93C430.97 22.54 428.79 21.8 427.12 22.02C424.72 22.33 422.56 24.74 420.65 25.47C413.18 28.33 401.71 29.65 393.57 30.86C369.02 34.52 344.22 39.48 319.63 43.05C313.47 43.94 306.49 43.91 300.4 45.01C298.46 45.36 295.31 46.91 293.82 48.31C292.77 49.3 291.89 51.46 290.12 52.84C286.79 55.44 282.66 57.74 279.21 60.53C278.32 61.25 277.15 63.16 277 63.25C276.22 63.71 274.59 63.69 272.82 65.45C263.42 74.81 251.17 81.61 241.9 91.27C241.69 91.49 241.87 92.25 241.69 92.41C241.38 92.67 240.33 92.44 239.37 93.18C238.36 93.96 237.59 96.13 236.23 97.19C231.65 100.78 226.62 104.1 221.96 107.76C221.09 108.44 219.1 109.33 218.56 109.89C217.89 110.59 218.14 111.65 217.65 112.19C217.14 112.75 215.93 112.2 215.41 112.51C214.75 112.89 214.68 113.82 214.33 114.04C213.85 114.35 212.91 114.08 212.29 114.58C211.81 114.96 210.74 117.68 209.28 118.16C209.09 118.62 210.75 118.06 209.99 118.87C208.61 120.33 205.32 122.9 203.6 124.25C202.28 125.29 199.92 126.26 198.68 127.33C196.42 129.28 194.6 131.75 192.1 133.91C185.84 139.33 178.86 145.56 172.73 150.43C172.14 150.9 170.84 150.62 170.68 152.27H173.97C171.77 152.95 169.01 153.08 167.39 154.86C169.69 155.44 172.08 153.67 174.44 152.97C186.27 149.45 198.36 146.75 210.11 142.94C212.87 143.54 212.15 142.77 212.89 142.38C213.73 141.94 215.05 142.06 215.4 140.98L212.11 141.92V140.51L217.28 139.09L216.81 137.22L220.11 136.28L218.23 138.16C219.21 138.39 221.43 137.42 221.05 139.1C219.47 139.16 217.21 139.5 216.34 140.98C219.13 140.86 221.86 139.93 224.48 139.09C224.75 139 224.73 138.27 225.15 138.17C227.22 137.67 230.07 137.75 231.87 136.04C229.62 135.02 225.99 138.74 225.28 134.87L233.05 132.52L233.28 133.92L230.93 134.15L233.28 134.38L233.54 135.83L246.93 133.92C247.04 134.6 246.1 134.58 245.62 134.71C243.55 135.29 241.09 135.79 238.93 135.8V137.21L242.18 136.79C243.57 141.23 238.29 141.54 235.64 143.57L238.46 143.34L234.74 145.28C234.59 145.5 234.96 146.6 235.13 146.81C235.64 147.43 236.71 146.67 236.58 147.56C234.03 148.62 230.72 149.37 228.42 150.93C226.3 152.36 225.06 154.86 223.39 156.25C222.39 157.08 220.55 157.64 219.41 158.39C217.47 159.66 216.15 162.06 213.08 161.72C213.05 162.9 213.37 163.43 212.11 163.8L213.05 164.97C208.73 164.95 203.86 166.51 199.77 167.94C191.33 170.88 183.15 174.81 174.55 177.54C164.6 180.71 153.12 183.66 142.72 181.88C141.66 181.7 140.86 180.38 139.63 181.2L124.79 194.12C98.1301 224.72 58.8901 250.66 37.0901 286.2C35.9201 288.11 31.8801 295.06 32.3901 296.84C32.9501 298.82 39.0001 299.41 41.0001 299.55C56.5201 300.62 72.0401 296.83 86.7601 294.04C90.9901 293.24 96.0901 290.6 99.9901 290.22C101.22 290.1 102.22 290.64 103.03 290.49C104.28 290.26 106.44 288.23 108.37 288.28L108.58 289.16H109.5C109.61 287.68 110.57 287.64 111.87 287.77L111.39 288.7H112.56C112.94 287.81 113.43 287.53 114.34 287.2C117.48 286.05 120.74 285.18 123.88 284.23C124.81 283.95 125.42 282.89 126.45 283.06C126.47 283.99 126.08 284.74 127.39 284.47L127.83 282.79C128.45 282.35 129.61 282.75 130.36 282.57C138.3 280.72 147.56 277.05 155.91 274.62C159.27 273.64 163.7 273 166.62 272.08C183.73 266.65 200.72 261.16 218.06 256.29C221.41 255.35 225.17 255.08 228.25 254.25C229.41 253.94 231.67 252.23 232.13 252.19C232.84 252.14 233.48 252.96 234.73 252.74C236.35 252.46 236.98 250.56 238.37 250.25C239.76 249.94 241.21 250.37 242.47 250.1C244.11 249.75 246.35 248.68 248.21 248.26C248.86 248.11 249.65 248.62 250.29 248.44C251.09 248.21 252.92 246.42 254.07 246.14C255.51 245.79 255.3 246.22 257.11 245.56C261.58 243.94 265.57 243.4 269.86 242.22C270.96 241.92 271.99 240.92 272.68 240.84C273.6 240.73 275.65 241.4 276.87 240.95C277.76 240.62 278.04 239.63 278.84 239.39C281.27 238.68 283.73 238.57 286.07 238.17C288.58 237.74 290.84 235.43 294.02 236.94C294.14 233.98 296.85 235.05 298.77 234.86C300.69 234.67 302.93 234.77 304.11 234.63C304.42 234.59 304.37 233.69 304.7 233.64C305.48 233.51 306.41 234.18 306.95 234.06C307.88 233.86 307.94 232.04 308.24 231.86C308.83 231.5 314.63 230.97 315.83 230.74C317.84 230.36 319.17 228.76 322.02 230.38C323.92 226.63 328.41 227.53 331.81 226.94C333.41 226.66 334.4 226.04 335.69 225.71C336.26 225.57 337.47 226.66 338.29 224.73L336.88 223.79C340.96 222.97 345.12 222.93 349.22 222.24C351.65 221.83 355.54 220.74 357.48 220.06C358.23 219.8 359.37 219.64 360.18 219.55C365.46 219 370.9 216.66 376.67 216.23C377.51 216.17 378.51 216.76 378.97 216.66C379.43 216.56 379.4 215.29 381.46 214.97C394.05 213 406.6 210.99 418.94 209.17C422.06 208.71 425.6 207.5 428.89 207.32C430.69 207.22 434.02 207.96 434.93 207.8C435.3 207.74 435.05 206.82 435.93 206.79C436.81 206.76 438.2 207.15 439.01 207.55L437.29 209.61C435.55 208.85 434.6 210.07 433.12 210.18C432.13 210.25 431.03 209.69 430.37 209.8C429.3 209.98 427.12 212.06 424.89 211.09C424.52 212.82 427.26 211.64 428.38 212.46L428.66 213.91C425.77 213.92 423.06 214.49 420.27 215.17C417.87 215.76 417.79 215.69 415.45 215.99C412.84 216.33 410.11 219.76 407.01 218.14C406.65 220.03 410.91 219.29 411.24 219.55C410.3 223.93 406.2 218.01 405.12 222.37L408.88 223.31C404.94 223.06 401.13 224.39 397.32 225.16C392.83 226.07 388.72 226.93 384.39 227.75C383.05 228.01 379.64 228.36 379.06 228.56C378.42 228.78 378.46 229.79 377.97 229.91C376.32 230.34 371.56 228.75 374.04 232.02C373.96 233.04 363.93 235.03 362.31 235.33C360.85 235.6 358.91 235.02 357.31 236.47L357.59 238.37H356.18L356.65 236.97L346.29 238.38L346.77 240.25C341.6 241.33 336.47 242.61 331.37 243.89C328.31 244.66 325.26 245.08 322.19 246.04C321.08 246.39 319.69 247.6 318.25 247.76L317.82 246.84L317.11 248.25C317.83 249.01 323.63 247.55 324.92 247.35C325.4 247.27 326.65 246.97 326.52 247.78C324.81 248.26 322.96 248.46 321.25 248.87C312.79 250.93 304.09 253.7 296.2 255.81L295.23 254.83C293.27 256.17 291.2 256.4 288.96 257.06C288.26 257.27 287.5 258.01 287.12 258.06C286.47 258.16 285.65 256.84 285.13 257.22C284.85 257.42 283.8 259.35 282.43 259.48L281.88 259.43C281.73 258.42 281.39 258.52 280.39 258.59C280.82 260.92 278.82 261.42 277.01 262.03C265.46 265.95 252.31 268.95 240.53 272.15C234.02 273.92 228.69 276.11 222.01 278.11C221.05 278.4 220.03 279.47 218.99 279.32L218.47 278.33L217.62 278.43C215.82 280.06 214.05 281.06 211.61 281.41L211.66 282.59C203.74 283.68 195.84 286.61 188.14 288.96C151.36 300.19 112.16 313.46 73.9201 318.29C60.3801 320 37.7401 318.29 26.7101 309.6C18.9401 303.48 11.3001 289.8 13.7101 279.75C15.4001 272.7 21.3901 264.56 25.6601 258.76C32.8001 249.07 50.8101 226.96 60.4001 220.54C60.9101 220.2 61.9301 220.06 61.9801 220C62.1501 219.76 61.4701 218.96 61.5801 218.66C61.7001 218.32 66.3901 214.86 67.1601 214.13C78.8801 203.13 90.5401 192.56 102.69 181.89C107.38 177.78 116.09 172.07 119.88 167.56C120.58 166.72 120.74 165.18 120.9 165.04C121.9 164.21 125.34 162.31 127.31 160.75C141.99 149.05 155.88 136.76 170 124.48L175.88 120.73L175.64 119.79C169.18 123.45 163.71 128.94 157.75 133.44L156.81 132.5C158.66 132.19 158.96 130.71 159.93 129.96C163.17 127.45 167.78 124.71 170.75 121.96C171.52 121.24 171.54 120.07 171.75 119.9C172.06 119.64 173.09 119.85 173.83 119.36C174.48 118.93 174.02 118.05 174.09 117.99C176.29 116.26 179.8 114.51 182.01 112.97C182.49 112.63 184.23 110.51 184.82 110.21C185.03 110.1 186.56 110.04 186.72 110.14V111.32C187.16 111.57 191.8 108.8 190.95 108.03L189.59 108L189.54 105.67C188.21 105.63 186.86 105.73 185.53 105.67C184.95 105.65 183.78 106.03 183.89 105.2H190.72C194.35 105.2 193.58 103.07 194.27 102.38C194.32 102.33 195.16 102.97 195.66 102.65C197.83 101.23 199.62 97.82 202.66 97.13L202.29 96.31C204.88 96.23 206.38 92.94 207.72 92.08C209.87 90.71 210.13 90.96 212.64 89C215.59 86.69 219.49 84.68 222.14 82.63C223.37 81.68 223.31 79.52 225.79 80.74L225.81 78.87C228.41 78.87 230.4 75.92 232.41 74.41C236.25 71.52 240.52 69.05 244.15 65.91C243.33 65.34 242.1 67 241.12 67.59C240.47 67.98 239.64 67.94 239.01 68.33C238 68.96 237.5 71.35 235.68 70.15L238.5 67.79L237.56 67.09C238.3 67.18 243.31 65.42 242.73 64.74L241.79 64.27L244.61 63.56L243.67 62.86L246.49 62.63L246.02 61.68L246.96 60.71C248.61 61.82 249.42 60.43 250.72 59.33L249.78 58.63C253.51 58.19 255.33 55.94 258.02 53.91C259.55 52.76 259.29 52.6 259.96 52.01C260.39 51.63 263.38 50.56 263.41 49.92C262.36 48.32 261.28 49.92 260.3 50.02C251.33 50.92 240.11 49.23 231.51 46.96C230.76 46.76 230.16 47.75 229.54 46.62L230.35 45.68C229.02 42.96 225.46 46.32 224.81 43.33L225.77 42.87C224.95 41.9 224.25 40.46 223.42 39.56C222.83 38.92 221.87 39.06 222 38.4L222.96 38.15C223.17 36.47 220.62 35.47 219.94 34.16C219.64 33.59 217.45 26.92 217.37 26.26C217.19 24.78 218.04 23.68 217.28 22.39L221.23 21.88L222.59 25.58C225.75 27.65 228.74 27.23 232.35 26.62C232.54 27.12 230.8 27.56 230.7 27.56H223.4H223.41ZM250.71 60.97C249.77 61.17 244.23 64.39 245.07 65.2L248.32 63.52L250.71 60.97ZM204.58 98.14C203.81 98 203.31 98.5 202.74 98.88C200.35 100.48 197.97 102.31 195.58 103.97C195.33 104.15 193.87 104.51 194.7 105.19C195.32 105.7 197.83 103.62 198.79 103.63L204.59 98.14H204.58ZM181.05 116.01L186.68 112.01C186.73 111.53 185.93 111.15 185.03 111.77C184.44 112.18 180.51 115.43 181.04 116.01H181.05Z" fill="#E2E2E2"/>
<path d="M310.96 192.7C313.91 191.87 313.29 191.44 315.7 189.67C324.18 183.46 332.53 176.66 340.98 170.61C342.04 169.85 345.02 168.52 346.1 167.59C346.97 166.85 347.62 164.68 347.98 164.42C348.66 163.94 351.24 163.58 352.74 162.73C354.04 162 356.26 159.64 357.24 158.97C368.15 151.58 379.27 145.06 389.68 137.18C390.33 136.69 390.9 135.47 391.9 135.05C391.97 134.01 383.52 133.84 382.47 133.66C381.73 133.53 375.5 131.19 375.1 130.91C373.82 130 368.92 123.98 368.27 122.45C366.6 118.47 363.72 109.73 364.7 105.51C365.22 103.28 366.37 99.42 367.07 97.06C367.99 93.98 371.24 90.74 371.6 89.31C371.83 88.4 371.02 87.45 371.4 86.83C371.89 86.01 376.11 83.7 377.17 82.92C377.48 82.69 377.6 81.94 377.99 81.65C380.39 79.84 382 78.78 385.31 79.31C384.19 81.46 387.17 82.15 384.36 83.32C385.93 85.16 384.83 86.98 384.9 88.9C384.94 90.09 385.72 92.11 385.56 93.2C385.46 93.91 384.33 94.56 384.38 95.54C384.41 96.21 385.28 96.71 385.24 97.34C385.19 98.13 383.76 99.41 383.45 100.27L384.37 101.17C383.83 101.75 382.74 103.89 382.7 104.49C382.68 104.74 383.18 105.1 383.18 105.38C383.2 107.13 382.17 107.75 384.37 108.7C382.15 109.4 384 110.35 385.54 110.35C388.91 110.35 395.79 108.5 398.49 106.34C395.26 106 392.01 107.64 388.84 107.99C388.35 108.04 387.08 108.32 387.2 107.53C390.3 107.82 393.54 105.45 396.44 105.21C397.91 105.09 398.84 105.67 399.64 105.65C399.89 105.65 402.15 102.32 403.43 105.17C403.87 104.79 404.37 104.44 404.95 104.32C408.36 103.65 415.39 101.7 418.43 99.92C418.91 99.64 419.54 99.15 419.68 98.58L418.27 98.11C419.42 98.2 421.04 96.85 421.88 96.78C422.72 96.71 424.43 98.89 425.33 96.7L423.91 95.51L434.71 92.43L434.47 90.08C435.96 88.64 437.68 89.78 439.09 89.56C441.12 89.24 443.58 88.03 446.34 87.78C447.92 87.64 449.06 89 450.27 87.04C447.57 85.95 451.11 85.22 451.76 84.88C455.15 83.1 458.95 82.07 462.35 80.05C467.98 76.71 473.66 74.75 480.03 72.65C480.66 72.44 480.3 71.28 482.96 71.79C485.62 72.3 485.24 74.55 486.19 75.36C487.05 76.09 489.19 76.21 489.71 76.57C489.92 76.72 491.74 80.18 492.67 80.91C493.6 81.64 495.34 81.52 495.73 82.08C496.07 82.58 495.85 83.69 496.19 84.44C496.59 85.33 497.93 85.72 498.45 87.35C499.6 90.98 497.16 90.63 495.89 92.68C495.42 93.44 495.93 93.92 495.28 94.81C494.26 96.21 488.83 98.92 488.41 99.75L489.35 101.38C488.09 101.55 484.46 103.74 483.99 104.67C483.83 104.97 484.21 105.57 484.17 105.59C483.95 105.73 482.89 105.59 482.3 105.84C478.56 107.43 475.54 110.64 472.39 112.88C464.21 118.69 455.21 123.34 447.31 129.45C432.79 140.7 415.64 150.29 400.37 160.84C399.35 161.55 397.32 162.16 396.19 163.06L396.64 164.41C391.39 164.92 387.1 169.82 382.96 172.62C381.89 173.34 380.58 173.69 379.54 174.38C358.83 188.33 338.67 202.78 317.12 215.03C315.78 215.79 314.5 217.99 312.72 218.63C310.85 219.3 309.1 218.89 307.09 220.06C305.52 220.97 304.82 222.91 303.78 223.38C302.88 223.78 302.24 223.2 301.44 223.36C300.64 223.52 297.5 224.49 296.85 224.9C296.4 225.18 296.52 226.08 296.14 226.08C295.36 226.08 294.82 225.11 294.06 224.86C292.19 224.25 291.17 224.67 289.35 222.98C288.81 222.47 288.85 221.68 288.35 221.15C287.55 220.29 286.45 220.1 285.71 218.61C282.85 212.87 290.73 203.66 295.43 200.66L294.02 203.48C296.93 204.19 297.42 201.67 298.9 200.34C303.75 195.96 309.62 191.78 314.97 187.49C317.18 185.72 319.19 183.47 321.56 181.85C322.31 182.37 321.22 183.14 320.86 183.51C318.09 186.32 312.62 189.28 310.96 192.67C309.42 193.1 307.1 194.72 306.73 196.43C306.91 196.63 310.15 194.71 310.48 194.29C311.14 193.47 310.81 192.96 310.96 192.67V192.7Z" fill="#E2E2E2"/>
<path d="M361.94 62.24C362.7 62.82 366.45 64.37 367.25 65.17C367.83 65.75 367.76 66.68 368.05 66.95C368.34 67.22 369.21 67.07 369.56 67.54C369.91 68.01 369.85 69.26 370.32 70.08C370.74 70.81 371.92 71.45 372.07 72.11C372.15 72.43 371.71 75.12 371.54 75.42C371.29 75.87 366.6 79.3 366 79.52C364.59 80.04 363.34 80.31 361.75 80.92C357.34 82.61 350.29 88.03 345.83 90.88C339.57 94.88 332.44 98.92 326.95 104C326.69 104.24 325.85 104.98 326.01 105.18C326.16 105.35 327.14 104.79 326.95 105.65C322.72 105.73 319.67 110.69 316.6 113.42C312.35 117.21 307.13 120.52 304.57 125.39L293.53 134.59H295.41C294.54 135.42 292.67 136.37 292.09 137.38C291.55 138.34 291.8 139.29 291.4 139.98C291.08 140.54 287.92 142.54 287.18 143.29C284.17 146.36 281.08 150.22 278.02 153.43C274.32 157.31 271.54 160.48 268.79 164.9C267.87 166.37 262 169.91 262.01 170.34L263.41 171.51C261.85 171.05 261.75 172.11 260.6 172.47L260.83 173.4C262.74 173.67 262.33 172.68 262.84 172.5C263.51 172.26 264.33 172.31 265.09 172.01C270.33 169.94 275.22 167.24 280.36 165.39L280.13 164.46L275.65 165.86C276.09 163.66 278.23 164.42 279.85 163.71C298.89 155.43 318.28 145.63 337.2 138.12L342.96 136.69C342.96 135.88 343.23 135.68 342.3 135.79C339.41 136.13 337.13 137.03 334.49 138.1L335.43 136.7L333.55 136.23C335.61 134.76 336.39 136.1 337.46 136.12C338.61 136.14 340.54 134.87 342.03 135.29V133.88L340.62 133.41C342.43 133.06 344.13 131.88 345.79 131.27C349.99 129.74 354.96 128.66 359.54 127.61C360.19 127.46 361.21 126.24 361.8 127.04C360.4 128.44 358.57 129 356.63 129.16L358.98 129.63C358.66 130.79 357.17 130.45 356.16 130.81C351.91 132.31 347.63 133.83 343.45 135.51L345.05 136.24C345.46 134.27 347.88 135.84 348.1 135.68C348.37 135.48 348.24 134.58 349.56 134.08C353.11 132.74 358.02 131.84 361.81 131.52L355.36 134.47L354.76 136.22H357.11C355.18 137.68 356.61 140.13 354.27 141.18C353.15 141.68 352.13 140.9 351.99 140.99C351.68 141.2 351.21 143.1 349.58 142.82C349.1 144.85 351.98 142.83 352.4 143.29C352.38 145.62 352.43 147.68 349.58 147.53L350.05 149.4L347.22 149.88L348.41 152.23L341.57 155.53C341.14 156.64 342.27 156.41 342.36 156.57C343.66 158.82 336.84 159.29 335.5 160.27L335.74 161.65C335.31 162.27 333.43 162.31 332.64 162.83C325.26 167.66 317.4 172.24 309.15 176.51C306.52 177.87 303.64 178.7 301.6 179.79C299.56 180.88 296.44 183.97 294.36 185.26C287.42 189.57 277.08 193.28 269.43 196.57C261.72 199.88 256.1 203.06 247.45 204.25C244.11 204.71 236.17 203.75 233.22 202.09C231.11 200.9 226.76 196.14 225.89 193.73C225.37 192.29 225.96 191.52 225.71 190.7C225 188.36 223.76 185.68 223.43 183.01C223.33 182.18 223.51 176.76 223.66 175.99C223.92 174.72 225.67 172.17 226.52 171.09C229.37 167.49 233.17 164.59 236.37 161.64C246.49 152.33 256.47 143.01 266.95 134.34C268.82 132.79 270.15 130.15 272.84 130.1C273.18 126.18 268.76 132.05 268.14 131.53C268 131.41 267.78 130.38 268.09 129.89C269.5 127.63 274.51 125.35 275.81 122.74L277.79 121.66C281.98 116.42 290.68 111.96 294.52 106.84C294.94 106.29 294.93 105.26 294.99 105.2C295.04 105.15 295.72 105.64 296.34 105.43C298.91 104.55 299.67 101.98 301.13 100.77C302.45 99.67 307.66 97.2 308.61 96.01C309.24 95.23 308.93 94.27 309.16 93.98C309.36 93.73 313.78 91.68 314.6 90.95C316.06 89.65 314.75 90.27 317.33 88.75C318.31 88.17 318.92 86.61 319.59 86.06C322.69 83.47 326.38 81.01 329.54 78.36C331.41 76.79 333.25 74.89 334.97 73.2C333.83 72.34 325.22 80.08 323.44 81.19C322.52 81.76 322.58 81.91 321.8 80.95C322.81 79.63 324.47 79.15 325.74 78.29C328.51 76.41 329.67 75.03 332.12 72.44C332.71 71.81 334.3 71.85 333.31 70.83L330.73 71.3L330.5 69.91L327.9 70.36C328.92 68.24 330.36 65.36 333.05 65.4L350.3 54.84C352.21 54.62 353.52 57.28 355.23 58.33C357.9 59.97 359.12 60.11 361.93 62.23L361.94 62.24ZM283.66 119.78C282.89 119.1 275.38 125.72 274.72 126.83C275.97 127.17 275.82 126.6 276.28 126.24C278.63 124.38 280.15 123.14 282.48 121.18C282.73 120.97 283.87 119.96 283.67 119.78H283.66ZM307.66 153.64C307.45 152.83 306.9 152.67 306.13 152.77C304.91 152.94 298.81 156.19 297.1 156.96C296.21 157.36 295.08 157.36 294.16 157.78C292.47 158.56 291.1 160.04 289.16 160.22L288.84 161.64L307.66 153.64Z" fill="#E2E2E2"/>
<path d="M447.46 202.58C447.71 202.89 447.46 204.27 446.68 204.38L408.4 209.16C408.19 207.96 408.58 208.31 409.34 208.01C413.02 206.52 416.2 207.25 419.87 206.75C426.09 205.92 434.65 203.62 440.66 203.5C442.26 203.47 443.86 204.26 445.35 204.01C446.33 203.84 446.81 201.78 447.46 202.58Z" fill="#E2E2E2"/>
<path d="M260.6 137.18C262.63 134.52 264.17 132.3 267.18 130.6C267.12 131.11 267.54 131.55 267.44 132.06C267.23 133.11 262.1 137.12 260.6 137.18Z" fill="#E2E2E2"/>
<path d="M244.59 131.54C244.44 132.43 243.6 132.31 243 132.53C240.05 133.64 236.87 134.32 233.77 134.82C234.06 134.05 235.84 133.33 236.56 133.14C238.97 132.51 242.1 132.31 244.6 131.53L244.59 131.54Z" fill="#E2E2E2"/>
<path d="M333.55 138.12C333.19 141.02 330.81 137.64 330.02 140.47L328.37 138.36C329.92 137 331.78 138.29 333.56 138.12H333.55Z" fill="#E2E2E2"/>
<path d="M407.92 208.23C408.2 209.48 407.37 209.18 406.52 209.4C404.44 209.93 402.07 210.19 399.92 210.11C400.32 209.35 402.35 209.1 403.19 208.92C404.73 208.59 406.35 208.39 407.91 208.24L407.92 208.23Z" fill="#E2E2E2"/>
<path d="M302.01 97.67C300.81 98.9 299.32 100.34 298 101.42C297.02 102.22 295.68 103.48 294.48 103.78C295.14 102.39 296.57 101.73 297.63 100.79C297.82 100.62 297.68 99.91 297.89 99.7C298.19 99.4 301.28 98.03 302.01 97.68V97.67Z" fill="#E2E2E2"/>
<path d="M317.07 85.43C317.78 86.11 313.1 89.41 312.37 89.66C311.88 88.16 316.37 84.77 317.07 85.43Z" fill="#E2E2E2"/>
<path d="M129.27 156.95C128.63 157.78 124.33 161.76 123.62 161.17C124.75 159.2 126.94 157.37 129.27 156.95Z" fill="#E2E2E2"/>
<path d="M241.29 131.07L236.02 132.66L234.24 132.24C236.48 131.47 238.91 130.93 241.3 131.07H241.29Z" fill="#E2E2E2"/>
</svg>
