<?xml version="1.0" encoding="UTF-8"?>
<svg id="Calque_1" data-name="Calque 1" xmlns="http://www.w3.org/2000/svg" viewBox="0 0 512 329.87">
  <path d="M223.41,27.56c-.08,1.17-.12.81.71.93,8.34,1.22,18.77-1.36,27.28-1.89.86-.05,1.75.05,2.61.02l-2.35.47c-.23,2.13,3.25.11,4.24.47l-1.41-1.4,5.17-.47c.46,2-2.61.1-2.82,1.4l16.47-1.41-5.17-.93,8.94-.47c-.21,1.31-3.28-.6-2.82,1.4,4.19-.2,8.8-1.29,12.93-1.44,1.79-.06,3.13.86,3.32.86.31,0,.81-.92,1.47-1.16,1.87-.65,6.66.06,9-.92.55-.23,3.51-2.43,4.48-2.83.57-.23,3.64-1.5,3.87-1.55,2.07-.46,2.53.05,3.52,1.64l-.94.93,1.06.62,48.1-5.56.5-.93-1.18-.93,10.82-.94c-1.49,1.55-5.06,1-7.26,1.44-.33.07-1.6.4-.97.91,3.67-.69,7.64-.31,11.27-.97.56-.1,1.11-.26,1.2-.91l-2.82-.47c8.11-1.67,16.44-1.58,24.73-1.87,6.1-.21,12.18-.62,18.36-.51,1.67.03,3.36,1.14,4.92-.21l-2.14-.77-.21-1.36c-1.65-.29-.17.78-1.17,1.4l-3.54-.46c-.22-1.34.28-.78,1.09-1,2.92-.8,8.56-.46,11.73-.28,4.82.27,9.71,1.12,14.49,1.76l-.48,2.35,1.41.47c-.59-.16-4.39-.08-3.54.95l1.65.93c-1.77.05-3.58-.5-4.7,1.18l1.87,2.11c-.96-.03-1.91-.05-2.85.21-.82.23-5.12,1.74-3.28,2.87l1.9.69c-1.9.61-4.08-.13-5.75.09-2.4.31-4.56,2.72-6.47,3.45-7.47,2.86-18.94,4.18-27.08,5.39-24.55,3.66-49.35,8.62-73.94,12.19-6.16.89-13.14.86-19.23,1.96-1.94.35-5.09,1.9-6.58,3.3-1.05.99-1.93,3.15-3.7,4.53-3.33,2.6-7.46,4.9-10.91,7.69-.89.72-2.06,2.63-2.21,2.72-.78.46-2.41.44-4.18,2.2-9.4,9.36-21.65,16.16-30.92,25.82-.21.22-.03.98-.21,1.14-.31.26-1.36.03-2.32.77-1.01.78-1.78,2.95-3.14,4.01-4.58,3.59-9.61,6.91-14.27,10.57-.87.68-2.86,1.57-3.4,2.13-.67.7-.42,1.76-.91,2.3-.51.56-1.72.01-2.24.32-.66.38-.73,1.31-1.08,1.53-.48.31-1.42.04-2.04.54-.48.38-1.55,3.1-3.01,3.58-.19.46,1.47-.1.71.71-1.38,1.46-4.67,4.03-6.39,5.38-1.32,1.04-3.68,2.01-4.92,3.08-2.26,1.95-4.08,4.42-6.58,6.58-6.26,5.42-13.24,11.65-19.37,16.52-.59.47-1.89.19-2.05,1.84h3.29c-2.2.68-4.96.81-6.58,2.59,2.3.58,4.69-1.19,7.05-1.89,11.83-3.52,23.92-6.22,35.67-10.03,2.76.6,2.04-.17,2.78-.56.84-.44,2.16-.32,2.51-1.4l-3.29.94v-1.41s5.17-1.42,5.17-1.42l-.47-1.87,3.3-.94-1.88,1.88c.98.23,3.2-.74,2.82.94-1.58.06-3.84.4-4.71,1.88,2.79-.12,5.52-1.05,8.14-1.89.27-.09.25-.82.67-.92,2.07-.5,4.92-.42,6.72-2.13-2.25-1.02-5.88,2.7-6.59-1.17l7.77-2.35.23,1.4-2.35.23,2.35.23.26,1.45,13.39-1.91c.11.68-.83.66-1.31.79-2.07.58-4.53,1.08-6.69,1.09v1.41s3.25-.42,3.25-.42c1.39,4.44-3.89,4.75-6.54,6.78l2.82-.23-3.72,1.94c-.15.22.22,1.32.39,1.53.51.62,1.58-.14,1.45.75-2.55,1.06-5.86,1.81-8.16,3.37-2.12,1.43-3.36,3.93-5.03,5.32-1,.83-2.84,1.39-3.98,2.14-1.94,1.27-3.26,3.67-6.33,3.33-.03,1.18.29,1.71-.97,2.08l.94,1.17c-4.32-.02-9.19,1.54-13.28,2.97-8.44,2.94-16.62,6.87-25.22,9.6-9.95,3.17-21.43,6.12-31.83,4.34-1.06-.18-1.86-1.5-3.09-.68l-14.84,12.92c-26.66,30.6-65.9,56.54-87.7,92.08-1.17,1.91-5.21,8.86-4.7,10.64.56,1.98,6.61,2.57,8.61,2.71,15.52,1.07,31.04-2.72,45.76-5.51,4.23-.8,9.33-3.44,13.23-3.82,1.23-.12,2.23.42,3.04.27,1.25-.23,3.41-2.26,5.34-2.21l.21.88h.92c.11-1.48,1.07-1.52,2.37-1.39l-.48.93h1.17c.38-.89.87-1.17,1.78-1.5,3.14-1.15,6.4-2.02,9.54-2.97.93-.28,1.54-1.34,2.57-1.17.02.93-.37,1.68.94,1.41l.44-1.68c.62-.44,1.78-.04,2.53-.22,7.94-1.85,17.2-5.52,25.55-7.95,3.36-.98,7.79-1.62,10.71-2.54,17.11-5.43,34.1-10.92,51.44-15.79,3.35-.94,7.11-1.21,10.19-2.04,1.16-.31,3.42-2.02,3.88-2.06.71-.05,1.35.77,2.6.55,1.62-.28,2.25-2.18,3.64-2.49s2.84.12,4.1-.15c1.64-.35,3.88-1.42,5.74-1.84.65-.15,1.44.36,2.08.18.8-.23,2.63-2.02,3.78-2.3,1.44-.35,1.23.08,3.04-.58,4.47-1.62,8.46-2.16,12.75-3.34,1.1-.3,2.13-1.3,2.82-1.38.92-.11,2.97.56,4.19.11.89-.33,1.17-1.32,1.97-1.56,2.43-.71,4.89-.82,7.23-1.22,2.51-.43,4.77-2.74,7.95-1.23.12-2.96,2.83-1.89,4.75-2.08s4.16-.09,5.34-.23c.31-.04.26-.94.59-.99.78-.13,1.71.54,2.25.42.93-.2.99-2.02,1.29-2.2.59-.36,6.39-.89,7.59-1.12,2.01-.38,3.34-1.98,6.19-.36,1.9-3.75,6.39-2.85,9.79-3.44,1.6-.28,2.59-.9,3.88-1.23.57-.14,1.78.95,2.6-.98l-1.41-.94c4.08-.82,8.24-.86,12.34-1.55,2.43-.41,6.32-1.5,8.26-2.18.75-.26,1.89-.42,2.7-.51,5.28-.55,10.72-2.89,16.49-3.32.84-.06,1.84.53,2.3.43s.43-1.37,2.49-1.69c12.59-1.97,25.14-3.98,37.48-5.8,3.12-.46,6.66-1.67,9.95-1.85,1.8-.1,5.13.64,6.04.48.37-.06.12-.98,1-1.01s2.27.36,3.08.76l-1.72,2.06c-1.74-.76-2.69.46-4.17.57-.99.07-2.09-.49-2.75-.38-1.07.18-3.25,2.26-5.48,1.29-.37,1.73,2.37.55,3.49,1.37l.28,1.45c-2.89.01-5.6.58-8.39,1.26-2.4.59-2.48.52-4.82.82-2.61.34-5.34,3.77-8.44,2.15-.36,1.89,3.9,1.15,4.23,1.41-.94,4.38-5.04-1.54-6.12,2.82l3.76.94c-3.94-.25-7.75,1.08-11.56,1.85-4.49.91-8.6,1.77-12.93,2.59-1.34.26-4.75.61-5.33.81-.64.22-.6,1.23-1.09,1.35-1.65.43-6.41-1.16-3.93,2.11-.08,1.02-10.11,3.01-11.73,3.31-1.46.27-3.4-.31-5,1.14l.28,1.9h-1.41s.47-1.4.47-1.4l-10.36,1.41.48,1.87c-5.17,1.08-10.3,2.36-15.4,3.64-3.06.77-6.11,1.19-9.18,2.15-1.11.35-2.5,1.56-3.94,1.72l-.43-.92-.71,1.41c.72.76,6.52-.7,7.81-.9.48-.08,1.73-.38,1.6.43-1.71.48-3.56.68-5.27,1.09-8.46,2.06-17.16,4.83-25.05,6.94l-.97-.98c-1.96,1.34-4.03,1.57-6.27,2.23-.7.21-1.46.95-1.84,1-.65.1-1.47-1.22-1.99-.84-.28.2-1.33,2.13-2.7,2.26l-.55-.05c-.15-1.01-.49-.91-1.49-.84.43,2.33-1.57,2.83-3.38,3.44-11.55,3.92-24.7,6.92-36.48,10.12-6.51,1.77-11.84,3.96-18.52,5.96-.96.29-1.98,1.36-3.02,1.21l-.52-.99-.85.1c-1.8,1.63-3.57,2.63-6.01,2.98l.05,1.18c-7.92,1.09-15.82,4.02-23.52,6.37-36.78,11.23-75.98,24.5-114.22,29.33-13.54,1.71-36.18,0-47.21-8.69-7.77-6.12-15.41-19.8-13-29.85,1.69-7.05,7.68-15.19,11.95-20.99,7.14-9.69,25.15-31.8,34.74-38.22.51-.34,1.53-.48,1.58-.54.17-.24-.51-1.04-.4-1.34.12-.34,4.81-3.8,5.58-4.53,11.72-11,23.38-21.57,35.53-32.24,4.69-4.11,13.4-9.82,17.19-14.33.7-.84.86-2.38,1.02-2.52,1-.83,4.44-2.73,6.41-4.29,14.68-11.7,28.57-23.99,42.69-36.27l5.88-3.75-.24-.94c-6.46,3.66-11.93,9.15-17.89,13.65l-.94-.94c1.85-.31,2.15-1.79,3.12-2.54,3.24-2.51,7.85-5.25,10.82-8,.77-.72.79-1.89,1-2.06.31-.26,1.34-.05,2.08-.54.65-.43.19-1.31.26-1.37,2.2-1.73,5.71-3.48,7.92-5.02.48-.34,2.22-2.46,2.81-2.76.21-.11,1.74-.17,1.9-.07v1.18c.44.25,5.08-2.52,4.23-3.29l-1.36-.03-.05-2.33c-1.33-.04-2.68.06-4.01,0-.58-.02-1.75.36-1.64-.47h6.83c3.63,0,2.86-2.13,3.55-2.82.05-.05.89.59,1.39.27,2.17-1.42,3.96-4.83,7-5.52l-.37-.82c2.59-.08,4.09-3.37,5.43-4.23,2.15-1.37,2.41-1.12,4.92-3.08,2.95-2.31,6.85-4.32,9.5-6.37,1.23-.95,1.17-3.11,3.65-1.89l.02-1.87c2.6,0,4.59-2.95,6.6-4.46,3.84-2.89,8.11-5.36,11.74-8.5-.82-.57-2.05,1.09-3.03,1.68-.65.39-1.48.35-2.11.74-1.01.63-1.51,3.02-3.33,1.82l2.82-2.36-.94-.7c.74.09,5.75-1.67,5.17-2.35l-.94-.47,2.82-.71-.94-.7,2.82-.23-.47-.95.94-.97c1.65,1.11,2.46-.28,3.76-1.38l-.94-.7c3.73-.44,5.55-2.69,8.24-4.72,1.53-1.15,1.27-1.31,1.94-1.9.43-.38,3.42-1.45,3.45-2.09-1.05-1.6-2.13,0-3.11.1-8.97.9-20.19-.79-28.79-3.06-.75-.2-1.35.79-1.97-.34l.81-.94c-1.33-2.72-4.89.64-5.54-2.35l.96-.46c-.82-.97-1.52-2.41-2.35-3.31-.59-.64-1.55-.5-1.42-1.16l.96-.25c.21-1.68-2.34-2.68-3.02-3.99-.3-.57-2.49-7.24-2.57-7.9-.18-1.48.67-2.58-.09-3.87l3.95-.51,1.36,3.7c3.16,2.07,6.15,1.65,9.76,1.04.19.5-1.55.94-1.65.94h-7.3ZM250.71,60.97c-.94.2-6.48,3.42-5.64,4.23l3.25-1.68,2.39-2.55ZM204.58,98.14c-.77-.14-1.27.36-1.84.74-2.39,1.6-4.77,3.43-7.16,5.09-.25.18-1.71.54-.88,1.22.62.51,3.13-1.57,4.09-1.56l5.8-5.49ZM181.05,116.01l5.63-4c.05-.48-.75-.86-1.65-.24-.59.41-4.52,3.66-3.99,4.24Z"/>
  <path d="M310.96,192.7c2.95-.83,2.33-1.26,4.74-3.03,8.48-6.21,16.83-13.01,25.28-19.06,1.06-.76,4.04-2.09,5.12-3.02.87-.74,1.52-2.91,1.88-3.17.68-.48,3.26-.84,4.76-1.69,1.3-.73,3.52-3.09,4.5-3.76,10.91-7.39,22.03-13.91,32.44-21.79.65-.49,1.22-1.71,2.22-2.13.07-1.04-8.38-1.21-9.43-1.39-.74-.13-6.97-2.47-7.37-2.75-1.28-.91-6.18-6.93-6.83-8.46-1.67-3.98-4.55-12.72-3.57-16.94.52-2.23,1.67-6.09,2.37-8.45.92-3.08,4.17-6.32,4.53-7.75.23-.91-.58-1.86-.2-2.48.49-.82,4.71-3.13,5.77-3.91.31-.23.43-.98.82-1.27,2.4-1.81,4.01-2.87,7.32-2.34-1.12,2.15,1.86,2.84-.95,4.01,1.57,1.84.47,3.66.54,5.58.04,1.19.82,3.21.66,4.3-.1.71-1.23,1.36-1.18,2.34.03.67.9,1.17.86,1.8-.05.79-1.48,2.07-1.79,2.93l.92.9c-.54.58-1.63,2.72-1.67,3.32-.02.25.48.61.48.89.02,1.75-1.01,2.37,1.19,3.32-2.22.7-.37,1.65,1.17,1.65,3.37,0,10.25-1.85,12.95-4.01-3.23-.34-6.48,1.3-9.65,1.65-.49.05-1.76.33-1.64-.46,3.1.29,6.34-2.08,9.24-2.32,1.47-.12,2.4.46,3.2.44.25,0,2.51-3.33,3.79-.48.44-.38.94-.73,1.52-.85,3.41-.67,10.44-2.62,13.48-4.4.48-.28,1.11-.77,1.25-1.34l-1.41-.47c1.15.09,2.77-1.26,3.61-1.33s2.55,2.11,3.45-.08l-1.42-1.19,10.8-3.08-.24-2.35c1.49-1.44,3.21-.3,4.62-.52,2.03-.32,4.49-1.53,7.25-1.78,1.58-.14,2.72,1.22,3.93-.74-2.7-1.09.84-1.82,1.49-2.16,3.39-1.78,7.19-2.81,10.59-4.83,5.63-3.34,11.31-5.3,17.68-7.4.63-.21.27-1.37,2.93-.86s2.28,2.76,3.23,3.57c.86.73,3,.85,3.52,1.21.21.15,2.03,3.61,2.96,4.34s2.67.61,3.06,1.17c.34.5.12,1.61.46,2.36.4.89,1.74,1.28,2.26,2.91,1.15,3.63-1.29,3.28-2.56,5.33-.47.76.04,1.24-.61,2.13-1.02,1.4-6.45,4.11-6.87,4.94l.94,1.63c-1.26.17-4.89,2.36-5.36,3.29-.16.3.22.9.18.92-.22.14-1.28,0-1.87.25-3.74,1.59-6.76,4.8-9.91,7.04-8.18,5.81-17.18,10.46-25.08,16.57-14.52,11.25-31.67,20.84-46.94,31.39-1.02.71-3.05,1.32-4.18,2.22l.45,1.35c-5.25.51-9.54,5.41-13.68,8.21-1.07.72-2.38,1.07-3.42,1.76-20.71,13.95-40.87,28.4-62.42,40.65-1.34.76-2.62,2.96-4.4,3.6-1.87.67-3.62.26-5.63,1.43-1.57.91-2.27,2.85-3.31,3.32-.9.4-1.54-.18-2.34-.02s-3.94,1.13-4.59,1.54c-.45.28-.33,1.18-.71,1.18-.78,0-1.32-.97-2.08-1.22-1.87-.61-2.89-.19-4.71-1.88-.54-.51-.5-1.3-1-1.83-.8-.86-1.9-1.05-2.64-2.54-2.86-5.74,5.02-14.95,9.72-17.95l-1.41,2.82c2.91.71,3.4-1.81,4.88-3.14,4.85-4.38,10.72-8.56,16.07-12.85,2.21-1.77,4.22-4.02,6.59-5.64.75.52-.34,1.29-.7,1.66-2.77,2.81-8.24,5.77-9.9,9.16-1.54.43-3.86,2.05-4.23,3.76.18.2,3.42-1.72,3.75-2.14.66-.82.33-1.33.48-1.62Z"/>
  <path d="M361.94,62.24c.76.58,4.51,2.13,5.31,2.93.58.58.51,1.51.8,1.78s1.16.12,1.51.59.29,1.72.76,2.54c.42.73,1.6,1.37,1.75,2.03.08.32-.36,3.01-.53,3.31-.25.45-4.94,3.88-5.54,4.1-1.41.52-2.66.79-4.25,1.4-4.41,1.69-11.46,7.11-15.92,9.96-6.26,4-13.39,8.04-18.88,13.12-.26.24-1.1.98-.94,1.18.15.17,1.13-.39.94.47-4.23.08-7.28,5.04-10.35,7.77-4.25,3.79-9.47,7.1-12.03,11.97l-11.04,9.2h1.88c-.87.83-2.74,1.78-3.32,2.79-.54.96-.29,1.91-.69,2.6-.32.56-3.48,2.56-4.22,3.31-3.01,3.07-6.1,6.93-9.16,10.14-3.7,3.88-6.48,7.05-9.23,11.47-.92,1.47-6.79,5.01-6.78,5.44l1.4,1.17c-1.56-.46-1.66.6-2.81.96l.23.93c1.91.27,1.5-.72,2.01-.9.67-.24,1.49-.19,2.25-.49,5.24-2.07,10.13-4.77,15.27-6.62l-.23-.93-4.48,1.4c.44-2.2,2.58-1.44,4.2-2.15,19.04-8.28,38.43-18.08,57.35-25.59l5.76-1.43c0-.81.27-1.01-.66-.9-2.89.34-5.17,1.24-7.81,2.31l.94-1.4-1.88-.47c2.06-1.47,2.84-.13,3.91-.11,1.15.02,3.08-1.25,4.57-.83v-1.41s-1.41-.47-1.41-.47c1.81-.35,3.51-1.53,5.17-2.14,4.2-1.53,9.17-2.61,13.75-3.66.65-.15,1.67-1.37,2.26-.57-1.4,1.4-3.23,1.96-5.17,2.12l2.35.47c-.32,1.16-1.81.82-2.82,1.18-4.25,1.5-8.53,3.02-12.71,4.7l1.6.73c.41-1.97,2.83-.4,3.05-.56.27-.2.14-1.1,1.46-1.6,3.55-1.34,8.46-2.24,12.25-2.56l-6.45,2.95-.6,1.75h2.35c-1.93,1.46-.5,3.91-2.84,4.96-1.12.5-2.14-.28-2.28-.19-.31.21-.78,2.11-2.41,1.83-.48,2.03,2.4.01,2.82.47-.02,2.33.03,4.39-2.82,4.24l.47,1.87-2.83.48,1.19,2.35-6.84,3.3c-.43,1.11.7.88.79,1.04,1.3,2.25-5.52,2.72-6.86,3.7l.24,1.38c-.43.62-2.31.66-3.1,1.18-7.38,4.83-15.24,9.41-23.49,13.68-2.63,1.36-5.51,2.19-7.55,3.28s-5.16,4.18-7.24,5.47c-6.94,4.31-17.28,8.02-24.93,11.31-7.71,3.31-13.33,6.49-21.98,7.68-3.34.46-11.28-.5-14.23-2.16-2.11-1.19-6.46-5.95-7.33-8.36-.52-1.44.07-2.21-.18-3.03-.71-2.34-1.95-5.02-2.28-7.69-.1-.83.08-6.25.23-7.02.26-1.27,2.01-3.82,2.86-4.9,2.85-3.6,6.65-6.5,9.85-9.45,10.12-9.31,20.1-18.63,30.58-27.3,1.87-1.55,3.2-4.19,5.89-4.24.34-3.92-4.08,1.95-4.7,1.43-.14-.12-.36-1.15-.05-1.64,1.41-2.26,6.42-4.54,7.72-7.15l1.98-1.08c4.19-5.24,12.89-9.7,16.73-14.82.42-.55.41-1.58.47-1.64.05-.05.73.44,1.35.23,2.57-.88,3.33-3.45,4.79-4.66,1.32-1.1,6.53-3.57,7.48-4.76.63-.78.32-1.74.55-2.03.2-.25,4.62-2.3,5.44-3.03,1.46-1.3.15-.68,2.73-2.2.98-.58,1.59-2.14,2.26-2.69,3.1-2.59,6.79-5.05,9.95-7.7,1.87-1.57,3.71-3.47,5.43-5.16-1.14-.86-9.75,6.88-11.53,7.99-.92.57-.86.72-1.64-.24,1.01-1.32,2.67-1.8,3.94-2.66,2.77-1.88,3.93-3.26,6.38-5.85.59-.63,2.18-.59,1.19-1.61l-2.58.47-.23-1.39-2.6.45c1.02-2.12,2.46-5,5.15-4.96l17.25-10.56c1.91-.22,3.22,2.44,4.93,3.49,2.67,1.64,3.89,1.78,6.7,3.9ZM283.66,119.78c-.77-.68-8.28,5.94-8.94,7.05,1.25.34,1.1-.23,1.56-.59,2.35-1.86,3.87-3.1,6.2-5.06.25-.21,1.39-1.22,1.19-1.4ZM307.66,153.64c-.21-.81-.76-.97-1.53-.87-1.22.17-7.32,3.42-9.03,4.19-.89.4-2.02.4-2.94.82-1.69.78-3.06,2.26-5,2.44l-.32,1.42,18.82-8Z"/>
  <path d="M447.46,202.58c.25.31,0,1.69-.78,1.8l-38.28,4.78c-.21-1.2.18-.85.94-1.15,3.68-1.49,6.86-.76,10.53-1.26,6.22-.83,14.78-3.13,20.79-3.25,1.6-.03,3.2.76,4.69.51.98-.17,1.46-2.23,2.11-1.43Z"/>
  <path d="M260.6,137.18c2.03-2.66,3.57-4.88,6.58-6.58-.06.51.36.95.26,1.46-.21,1.05-5.34,5.06-6.84,5.12Z"/>
  <path d="M244.59,131.54c-.15.89-.99.77-1.59.99-2.95,1.11-6.13,1.79-9.23,2.29.29-.77,2.07-1.49,2.79-1.68,2.41-.63,5.54-.83,8.04-1.61Z"/>
  <path d="M333.55,138.12c-.36,2.9-2.74-.48-3.53,2.35l-1.65-2.11c1.55-1.36,3.41-.07,5.19-.24Z"/>
  <path d="M407.92,208.23c.28,1.25-.55.95-1.4,1.17-2.08.53-4.45.79-6.6.71.4-.76,2.43-1.01,3.27-1.19,1.54-.33,3.16-.53,4.72-.68Z"/>
  <path d="M302.01,97.67c-1.2,1.23-2.69,2.67-4.01,3.75-.98.8-2.32,2.06-3.52,2.36.66-1.39,2.09-2.05,3.15-2.99.19-.17.05-.88.26-1.09.3-.3,3.39-1.67,4.12-2.02Z"/>
  <path d="M317.07,85.43c.71.68-3.97,3.98-4.7,4.23-.49-1.5,4-4.89,4.7-4.23Z"/>
  <path d="M129.27,156.95c-.64.83-4.94,4.81-5.65,4.22,1.13-1.97,3.32-3.8,5.65-4.22Z"/>
  <path d="M241.29,131.07l-5.27,1.59-1.78-.42c2.24-.77,4.67-1.31,7.06-1.17Z"/>
</svg>