<svg width="2518" height="870" viewBox="0 0 2518 870" fill="none" xmlns="http://www.w3.org/2000/svg">
<path d="M260.506 388.936C190.909 466.969 127.639 550.626 73.5084 640.61C60.1514 663.106 48.9034 687.711 40.4674 713.019C30.6254 741.842 36.9524 750.981 67.8844 753.09C93.1924 754.496 119.203 754.496 144.511 752.387C245.04 744.654 344.866 735.515 445.395 728.485C526.24 723.564 607.085 720.752 687.93 716.534C831.342 709.504 974.051 710.91 1117.46 715.128C1192.68 717.237 1267.2 722.158 1341.02 736.921C1362.11 741.842 1383.2 748.872 1403.58 755.199C1410.61 756.605 1417.64 760.12 1416.24 769.259C1414.13 779.804 1405.69 783.319 1395.85 781.913C1374.76 777.695 1353.67 773.477 1332.58 768.556C1290.4 759.417 1247.52 756.605 1204.64 753.793C1177.22 752.387 1149.8 749.575 1122.38 746.763C1118.87 746.763 1114.65 745.357 1111.14 745.357C1040.84 746.763 971.239 748.169 900.939 749.575C900.939 748.872 900.939 748.169 900.939 748.169C846.808 748.169 792.677 746.763 738.546 748.169C696.366 749.575 654.186 748.169 612.006 751.684C531.864 759.417 451.019 762.229 370.174 767.853C326.588 770.665 282.299 777.695 238.713 781.21C189.503 785.428 140.293 788.943 91.0834 790.349C69.2904 790.349 46.7944 787.537 29.2194 772.774C8.83238 753.793 0.396383 729.188 8.83238 702.474C17.2684 674.354 28.5164 646.937 41.8734 620.926C70.6964 564.686 108.658 513.367 145.917 462.751C210.593 376.282 283.002 296.843 362.441 223.731C437.662 155.54 512.883 87.349 600.758 34.624C616.927 24.0789 634.502 14.9399 652.077 5.80101C659.107 2.28592 667.543 0.176994 673.87 7.20699C680.9 14.9399 677.385 22.673 672.464 29C668.246 35.327 663.325 41.654 657.701 45.872C609.897 79.616 561.39 111.251 514.992 146.401C482.654 170.303 451.722 197.017 422.899 225.137C367.362 278.565 311.825 331.29 260.506 388.936ZM613.176 558.359C603.334 562.577 592.086 566.092 581.541 566.795C563.263 568.904 549.906 553.438 556.233 535.863C561.857 519.694 569.59 504.228 578.026 489.465C591.383 466.266 604.74 443.067 620.909 421.977C627.939 411.432 639.89 402.996 651.138 397.372C672.228 385.421 689.803 391.045 703.16 410.729C705.972 414.244 708.081 418.462 709.487 421.977C712.299 427.601 715.111 433.928 717.923 439.552C717.22 433.225 717.22 427.601 716.517 421.977C715.111 409.323 718.626 401.59 729.171 395.966C736.201 392.451 743.231 390.342 750.261 395.966C756.588 400.184 759.4 407.214 757.994 414.947C756.588 421.274 753.073 427.601 750.964 433.928C746.043 445.176 746.746 450.097 757.994 455.721C767.836 460.642 778.381 464.157 788.926 465.563C805.095 468.375 821.967 468.375 838.136 469.078V468.375C844.463 469.078 851.493 468.375 857.82 470.484C861.335 471.187 864.85 476.108 865.553 478.92C866.256 481.732 862.038 485.247 859.929 487.356C858.523 488.762 855.711 489.465 853.602 489.465C814.937 493.683 776.272 496.495 743.934 468.375C734.795 460.642 729.171 462.048 722.844 471.89C704.566 498.604 679.961 518.288 653.247 535.863C639.89 543.596 627.236 552.032 613.176 558.359ZM580.135 535.863C579.432 537.269 581.541 540.784 582.947 541.487C585.759 542.19 589.274 541.487 591.383 540.081C632.86 523.912 668.01 499.307 697.536 466.266C699.645 464.157 701.051 461.345 701.754 459.939C697.536 447.285 694.724 436.037 689.803 425.492C687.694 421.977 679.961 419.868 675.04 420.571C659.574 421.977 647.623 431.116 637.781 442.364C614.582 471.187 597.007 503.525 580.135 535.863ZM1177.1 464.86C1179.21 463.454 1182.72 463.454 1185.53 462.751C1191.86 460.642 1197.48 460.642 1199.59 467.672C1201.7 474.702 1201 481.732 1193.27 484.544C1179.21 490.871 1165.15 496.495 1150.38 502.119C1122.26 511.961 1094.85 522.506 1066.73 531.645C1048.45 537.972 1029.47 541.487 1017.52 545.002C987.991 545.002 974.634 529.536 978.852 507.743C979.555 504.931 980.258 502.822 980.961 500.713C981.664 496.495 983.07 491.574 984.476 486.653C978.149 488.059 971.822 488.762 966.901 492.277C942.296 507.743 919.097 523.912 894.492 540.081C888.165 543.596 881.135 546.408 874.808 549.22C860.045 556.25 847.391 552.032 836.143 541.487C824.895 531.645 823.489 518.991 829.113 507.04C836.143 491.574 844.579 476.811 853.718 462.751C861.451 450.097 871.293 438.849 881.838 427.601C886.056 422.68 891.68 416.353 900.819 421.274C909.255 426.898 913.473 442.364 907.849 450.8C903.631 457.127 897.304 463.454 893.086 469.781C881.135 486.653 869.887 504.228 858.639 521.1C857.233 522.506 857.233 526.021 858.639 527.427C859.342 528.13 862.857 528.13 864.263 527.427C881.838 519.694 900.116 512.664 916.988 504.228C944.405 489.465 971.119 473.296 998.536 458.533C1004.16 455.018 1009.08 448.691 1016.11 454.315C1024.55 459.939 1022.44 469.078 1018.92 476.108C1014.7 487.356 1008.38 497.198 1004.16 507.743C1002.75 510.555 1003.46 514.773 1004.86 518.288C1005.57 519.694 1009.78 519.694 1012.6 518.991C1028.76 514.773 1044.93 509.852 1061.1 504.228C1099.77 491.574 1138.43 478.217 1177.1 464.86ZM2030.36 60.635C2040.91 53.605 2052.16 47.278 2064.11 41.654C2106.99 20.5639 2147.06 46.575 2145.66 95.082C2145.66 125.311 2132.3 150.619 2118.24 175.224C2080.28 242.712 2031.07 301.764 1977.64 357.301C1941.08 395.966 1903.12 433.225 1865.16 471.187C1863.75 472.593 1862.35 475.405 1860.94 478.217C1864.46 478.92 1867.97 481.029 1870.78 480.326C1898.2 474.702 1924.91 469.078 1951.63 463.454C1955.85 462.751 1959.36 461.345 1963.58 460.642C1971.31 459.939 1977.64 462.751 1978.34 471.187C1979.04 478.217 1976.94 483.841 1967.8 485.95C1939.68 492.277 1910.85 500.01 1882.73 507.04C1875.7 509.149 1869.38 511.258 1863.05 513.367C1814.54 526.724 1775.17 554.141 1736.51 586.479C1680.27 635.689 1621.22 682.087 1559.35 724.267C1488.35 773.477 1413.83 819.172 1332.28 850.104C1316.82 856.431 1300.65 862.055 1284.48 865.57C1269.01 869.788 1253.55 869.788 1239.49 859.243C1225.43 849.401 1221.91 838.856 1231.05 824.093C1237.38 812.845 1245.82 803.003 1255.66 795.27C1289.4 770.665 1322.44 746.06 1357.59 724.267C1477.1 649.046 1602.24 583.667 1732.99 529.536C1761.82 517.585 1782.2 497.198 1803.29 476.811C1885.55 400.184 1964.98 320.745 2035.99 232.87C2064.81 196.314 2091.52 158.352 2110.51 115.469C2113.32 108.439 2116.13 100.706 2118.24 93.676C2123.16 71.883 2114.72 63.447 2092.93 69.071C2082.39 71.18 2072.54 76.804 2064.11 82.428C1991 129.529 1917.88 175.927 1845.47 224.434C1743.54 292.625 1641.6 362.925 1539.67 431.116C1488.35 464.86 1437.73 499.307 1385.01 530.239C1353.37 549.22 1319.63 566.795 1282.37 574.528C1269.72 577.34 1257.06 578.746 1244.41 580.855C1190.28 583.667 1157.94 535.863 1160.05 486.653C1162.16 438.146 1176.22 391.748 1195.9 347.459C1235.97 253.257 1288.7 166.788 1352.67 86.646C1366.73 69.071 1382.9 52.902 1399.07 36.733C1405.4 30.406 1413.83 25.485 1422.27 33.218C1430.7 40.248 1430.7 49.3869 1426.49 57.823C1422.97 65.5559 1422.27 75.398 1409.61 79.616C1400.48 83.131 1392.04 92.27 1386.42 101.409C1347.05 156.946 1309.09 213.186 1276.75 273.644C1247.92 327.775 1223.32 382.609 1207.85 442.364C1201.53 469.078 1196.61 496.495 1202.23 524.615C1205.74 543.596 1209.26 547.814 1229.65 546.408C1244.41 545.705 1259.17 542.893 1272.53 537.972C1334.39 517.585 1389.23 483.841 1442.66 448.691C1548.11 379.094 1652.15 308.091 1757.6 238.494C1848.29 178.036 1939.68 119.687 2030.36 60.635ZM1604.35 646.937C1620.51 634.283 1636.68 621.629 1652.85 608.272C1656.37 605.46 1658.48 600.539 1660.59 597.024C1656.37 597.024 1650.74 595.618 1647.23 597.727C1616.3 613.896 1585.36 630.768 1554.43 646.937C1529.83 660.294 1503.82 672.245 1479.21 686.305C1446.17 705.286 1413.83 725.673 1381.49 746.06C1350.56 766.447 1318.93 786.834 1288 807.924C1280.26 812.845 1273.94 821.281 1267.61 828.311C1266.2 829.717 1265.5 833.232 1266.2 833.935C1267.61 835.341 1270.42 836.044 1273.23 837.45C1279.56 835.341 1286.59 833.935 1292.92 831.123C1310.49 824.093 1327.36 817.063 1344.24 809.33C1438.44 766.447 1522.8 708.801 1604.35 646.937ZM2284.46 464.86C2286.57 463.454 2290.08 463.454 2292.9 462.751C2299.22 460.642 2304.85 460.642 2306.96 467.672C2309.06 474.702 2308.36 481.732 2300.63 484.544C2286.57 490.871 2272.51 496.495 2257.75 502.119C2229.63 511.961 2202.21 522.506 2174.09 531.645C2155.81 537.972 2136.83 541.487 2124.88 545.002C2095.35 545.002 2082 529.536 2086.21 507.743C2086.92 504.931 2087.62 502.822 2088.32 500.713C2089.03 496.495 2090.43 491.574 2091.84 486.653C2085.51 488.059 2079.18 488.762 2074.26 492.277C2049.66 507.743 2026.46 523.912 2001.85 540.081C1995.53 543.596 1988.5 546.408 1982.17 549.22C1967.41 556.25 1954.75 552.032 1943.5 541.487C1932.26 531.645 1930.85 518.991 1936.47 507.04C1943.5 491.574 1951.94 476.811 1961.08 462.751C1968.81 450.097 1978.65 438.849 1989.2 427.601C1993.42 422.68 1999.04 416.353 2008.18 421.274C2016.62 426.898 2020.83 442.364 2015.21 450.8C2010.99 457.127 2004.67 463.454 2000.45 469.781C1988.5 486.653 1977.25 504.228 1966 521.1C1964.59 522.506 1964.59 526.021 1966 527.427C1966.7 528.13 1970.22 528.13 1971.62 527.427C1989.2 519.694 2007.48 512.664 2024.35 504.228C2051.77 489.465 2078.48 473.296 2105.9 458.533C2111.52 455.018 2116.44 448.691 2123.47 454.315C2131.91 459.939 2129.8 469.078 2126.28 476.108C2122.07 487.356 2115.74 497.198 2111.52 507.743C2110.12 510.555 2110.82 514.773 2112.22 518.288C2112.93 519.694 2117.15 519.694 2119.96 518.991C2136.13 514.773 2152.3 509.852 2168.46 504.228C2207.13 491.574 2245.79 478.217 2284.46 464.86ZM2500.11 478.92C2450.9 502.822 2401.69 526.724 2353.18 550.626C2339.82 556.953 2328.57 564.686 2330.68 582.261C2331.39 589.291 2328.57 597.024 2325.76 604.054C2314.51 632.877 2263.9 667.324 2231.56 667.324C2228.75 667.324 2225.23 667.324 2221.72 666.621C2204.85 663.106 2196.41 646.234 2206.95 632.877C2217.5 618.817 2230.86 606.866 2244.92 595.618C2259.68 584.37 2276.55 574.528 2293.42 563.983C2309.59 554.141 2310.3 552.735 2304.67 533.754C2300.45 517.585 2295.53 501.416 2292.02 484.544C2285.69 453.612 2293.42 435.334 2322.25 420.571C2340.52 410.729 2358.8 402.293 2378.49 395.263C2391.84 390.342 2400.98 395.966 2405.2 407.214C2408.01 415.65 2405.9 420.571 2396.76 424.086C2380.6 431.116 2363.72 437.443 2347.55 444.473C2341.93 447.285 2335.6 450.097 2329.98 454.315C2317.33 462.751 2311.7 475.405 2314.51 490.871C2317.33 504.931 2321.54 518.991 2325.06 533.754C2327.17 541.487 2332.09 542.19 2338.42 538.675C2357.4 530.239 2375.67 521.1 2394.66 511.961C2428.4 496.495 2461.44 481.029 2495.18 465.563C2500.81 463.454 2509.24 456.424 2512.76 464.157C2517.68 473.999 2506.43 476.108 2500.11 478.92ZM2299.05 597.727C2300.45 595.618 2301.86 592.806 2302.56 589.994C2303.27 587.885 2302.56 585.073 2301.16 583.667C2300.45 582.964 2296.94 582.964 2295.53 583.667C2278.66 594.915 2261.09 606.163 2244.92 618.114C2236.48 624.441 2230.15 632.174 2222.42 639.907C2221.72 640.61 2221.72 643.422 2222.42 645.531C2222.42 646.234 2224.53 646.937 2225.94 646.937C2227.34 646.937 2228.75 646.937 2230.15 646.937C2258.98 638.501 2280.77 620.926 2299.05 597.727Z" fill="#E2E2E2"/>
</svg>
